<svg width="234" height="102" viewBox="0 0 234 102" fill="none" xmlns="http://www.w3.org/2000/svg">
<g opacity="0.5">
<mask id="path-1-inside-1_2010_26" fill="white">
<path d="M14.4018 12.615C0.0529857 20.8993 -5.06046 39.5163 5.94294 51.9034C16.4364 63.7165 28.7973 73.8219 42.5928 81.7868C65.0916 94.7765 90.6133 101.615 116.593 101.615C142.572 101.615 168.094 94.7765 190.593 81.7868C204.388 73.822 216.749 63.7165 227.243 51.9035C238.246 39.5163 233.133 20.8993 218.784 12.615L203.856 3.99637C189.507 -4.2879 171.348 1.40318 157.895 11.0737C155.991 12.4422 154.015 13.7188 151.974 14.8973C141.217 21.1081 129.014 24.3777 116.593 24.3777C104.171 24.3777 91.9687 21.1081 81.2114 14.8973C79.1701 13.7188 77.1945 12.4422 75.2907 11.0737C61.8371 1.40317 43.6785 -4.2879 29.3297 3.99637L14.4018 12.615Z"/>
</mask>
<path d="M14.4018 12.615C0.0529857 20.8993 -5.06046 39.5163 5.94294 51.9034C16.4364 63.7165 28.7973 73.8219 42.5928 81.7868C65.0916 94.7765 90.6133 101.615 116.593 101.615C142.572 101.615 168.094 94.7765 190.593 81.7868C204.388 73.822 216.749 63.7165 227.243 51.9035C238.246 39.5163 233.133 20.8993 218.784 12.615L203.856 3.99637C189.507 -4.2879 171.348 1.40318 157.895 11.0737C155.991 12.4422 154.015 13.7188 151.974 14.8973C141.217 21.1081 129.014 24.3777 116.593 24.3777C104.171 24.3777 91.9687 21.1081 81.2114 14.8973C79.1701 13.7188 77.1945 12.4422 75.2907 11.0737C61.8371 1.40317 43.6785 -4.2879 29.3297 3.99637L14.4018 12.615Z" fill="white" fill-opacity="0.02" stroke="white" stroke-opacity="0.1" stroke-width="2.6" mask="url(#path-1-inside-1_2010_26)"/>
</g>
</svg>
