<svg width="52" height="54" viewBox="0 0 52 54" fill="none" xmlns="http://www.w3.org/2000/svg">
<path d="M50.2659 53.6788C50.6399 54.084 51.2737 54.1094 51.679 53.7344C52.0842 53.3604 52.1096 52.7276 51.7346 52.3214L28.3616 27.0001L51.7346 1.67878C52.1096 1.27253 52.0842 0.639713 51.679 0.26569C51.4866 0.0879554 51.2434 6.48499e-05 51.0002 6.48499e-05C50.7307 6.48499e-05 50.4622 0.108463 50.2659 0.321354L26.2659 26.3214C25.9114 26.7051 25.9114 27.295 26.2659 27.6788L50.2659 53.6788Z" fill="white"/>
<path d="M0.265869 27.6788L24.2659 53.6788C24.6389 54.084 25.2737 54.1094 25.679 53.7344C26.0842 53.3604 26.1096 52.7276 25.7346 52.3214L2.36157 27.0001L25.7346 1.67878C26.1096 1.27253 26.0842 0.639713 25.679 0.26569C25.4866 0.0879554 25.2434 6.48499e-05 25.0002 6.48499e-05C24.7307 6.48499e-05 24.4622 0.108463 24.2659 0.321354L0.265869 26.3214C-0.088623 26.7051 -0.088623 27.295 0.265869 27.6788Z" fill="white"/>
</svg>
